{"title":"300 Rise of an Empire 2014 BDRip 480p x264 Dual Audio [Hindi-Eng","uid":10428117,"size":464292636,"categoryP":"video","categoryS":"movies","magnet":"?xt=urn:btih:251918abdda80fa0a92287efcf5865c762ea63bb&amp;dn=300+Rise+of+an+Empire+2014+BDRip+480p+x264+Dual+Audio+%5BHindi-Eng&amp;tr=udp%3A%2F%2Ftracker.openbittorrent.com%3A80&amp;tr=udp%3A%2F%2Fopen.demonii.com%3A1337&amp;tr=udp%3A%2F%2Ftracker.coppersurfer.tk%3A6969&amp;tr=udp%3A%2F%2Fexodus.desync.com%3A6969","seeders":2,"leechers":0,"uploader":"Dj_YsB","files":8,"time":1403771782,"description":"300 Rise of an Empire (2014) BDRip 480p x264 Dual Audio [Hindi-Eng] YsB TeaM SSX\n\n &lt;a href=&quot;\nhttp://i.imgur.com/9IYEgFW.jpg&quot; rel=&quot;nofollow&quot; target=&quot;_NEW&quot;&gt;\nhttp://i.imgur.com/9IYEgFW.jpg&lt;/a&gt;\n\n\nInfo:\nGeneral\nComplete name                            : 300 Rise of an Empire (2014) BDRip 480p x264 Dual Audio [Hindi-Eng] YsB TeaM SSX.mkv\nFormat                                   : Matroska\nFile size                                : 436 MiB\nDuration                                 : 1h 42mn\nOverall bit rate                         : 594 Kbps\nMovie name                               : 300 Rise of an Empire 2014 BDRip 480p x264 Dual Audio [Hindi-Eng] YsB TeaM SSX\n\nVideo\nID                                       : 1\nFormat                                   : AVC\nDuration                                 : 1h 42mn\nBit rate                                 : 400 Kbps\nWidth                                    : 848 pixels\nHeight                                   : 352 pixels\nFrame rate mode                          : Constant\nFrame rate                               : 23.976 fps\nStream size                              : 286 MiB (66%)\nTitle                                    : YsB TeaM SSX\n\nAudio #1\nID                                       : 2\nFormat                                   : AC-3\nDuration                                 : 1h 42mn\nBit rate                                 : 96.0 Kbps\nChannel(s)                               : 2 channels\nChannel positions                        : Front: L R\nSampling rate                            : 48.0 KHz\nStream size                              : 70.5 MiB (16%)\nTitle                                    : YsB TeaM SSX\nLanguage                                 : Hindi\n\nAudio #2\nID                                       : 3\nFormat                                   : AC-3\nFormat                                   : AC-3\nDuration                                 : 1h 42mn\nBit rate                                 : 96.0 Kbps\nChannel(s)                               : 2 channels\nChannel positions                        : Front: L R\nSampling rate                            : 48.0 KHz\nStream size                              : 70.5 MiB (16%)\nTitle                                    : YsB TeaM SSX\nLanguage                                 : English\n\nText #1\nID                                       : 4\nFormat                                   : UTF-8\nCodec ID                                 : S_TEXT/UTF8\nCodec ID/Info                            : UTF-8 Plain Text\nTitle                                    : YsB TeaM SSX [Full]\nLanguage                                 : English\nDefault                                  : No\nForced                                   : No\n\nText #2\nID                                       : 5\nFormat                                   : UTF-8\nCodec ID                                 : S_TEXT/UTF8\nCodec ID/Info                            : UTF-8 Plain Text\nTitle                                    : YsB TeaM SSX [SDH]\nLanguage                                 : English\nDefault                                  : No\nForced                                   : No\n\nMenu\n00:00:00.000                             : en:Chapter 01\n00:10:26.376                             : en:Chapter 02\n00:20:54.628                             : en:Chapter 03\n00:31:15.290                             : en:Chapter 04\n00:40:58.498                             : en:Chapter 05\n00:50:50.714                             : en:Chapter 06\n01:00:05.435                             : en:Chapter 07\n01:09:51.813                             : en:Chapter 08\n01:19:51.245                             : en:Chapter 09\n01:31:07.295                             : en:Chapter 10\n01:33:57.131                             : en:Chapter 11\n\n\nScreenShot: &lt;a href=&quot;\nhttp://i.imgur.com/AOyrs8t.jpg&quot; rel=&quot;nofollow&quot; target=&quot;_NEW&quot;&gt;\nhttp://i.imgur.com/AOyrs8t.jpg&lt;/a&gt; &lt;a href=&quot;\nhttp://i.imgur.com/u01X1Zp.jpg&quot; rel=&quot;nofollow&quot; target=&quot;_NEW&quot;&gt;\nhttp://i.imgur.com/u01X1Zp.jpg&lt;/a&gt; &lt;a href=&quot;\nhttp://i.imgur.com/MRtRSXc.jpg&quot; rel=&quot;nofollow&quot; target=&quot;_NEW&quot;&gt;\nhttp://i.imgur.com/MRtRSXc.jpg&lt;/a&gt;\n\nThanks\nGPsoft, HDDR...\nTeaM SSX - Maverick Dude, Hari, Hemkumar, Sajan...","torrent":{"xt":"urn:btih:251918abdda80fa0a92287efcf5865c762ea63bb","amp;dn":"300+Rise+of+an+Empire+2014+BDRip+480p+x264+Dual+Audio+%5BHindi-Eng","amp;tr":["udp%3A%2F%2Ftracker.openbittorrent.com%3A80","udp%3A%2F%2Fopen.demonii.com%3A1337","udp%3A%2F%2Ftracker.coppersurfer.tk%3A6969","udp%3A%2F%2Fexodus.desync.com%3A6969"],"infoHash":"251918abdda80fa0a92287efcf5865c762ea63bb","infoHashBuffer":{"type":"Buffer","data":[37,25,24,171,221,168,15,160,169,34,135,239,207,88,101,199,98,234,99,187]},"announce":[],"urlList":[]}}